<?xml version="1.0" encoding="iso-8859-1"?>
<!-- Uploaded to: SVG Repo, www.svgrepo.com, Generator: SVG Repo Mixer Tools -->
<!DOCTYPE svg PUBLIC "-//W3C//DTD SVG 1.1//EN" "http://www.w3.org/Graphics/SVG/1.1/DTD/svg11.dtd">
<svg fill="#000000" height="800px" width="800px" version="1.1" id="Capa_1" xmlns="http://www.w3.org/2000/svg" xmlns:xlink="http://www.w3.org/1999/xlink" 
	 viewBox="0 0 425.718 425.718" xml:space="preserve">
<g>
	<path d="M222.591,304.292c-0.004,0-0.003,0-0.007,0c-3.222,0-6.493-0.045-9.727-0.133c-3.235,0.088-6.508,0.133-9.727,0.133
		c-15.575,0-31.485-1.068-46.715-3.404c-15.419,47.459-33.734,124.83,10.75,124.83c24.389,0,37.131,0,43.574,0
		c1.922,0,3.297,0,4.234,0c6.445,0,19.186,0,43.574,0c44.483,0,26.169-77.371,10.751-124.83
		C254.073,303.224,238.165,304.292,222.591,304.292z"/>
	<path d="M326.4,140.974c-13.848-21.318-32.813-50.514-55.603-102.903C260.277,13.876,238.791,0,211.848,0
		c-26.414,0-46.1,13.165-56.928,38.07c-22.79,52.388-41.755,81.584-55.603,102.902c-20.299,31.249-29.563,45.513-26.024,93.368
		c1.487,20.127,15.437,35.846,41.462,46.721c22.637,9.459,54.022,14.67,88.376,14.67c3.18,0,6.412-0.047,9.607-0.135l0.119-0.004
		l0.119,0.004c3.193,0.088,6.426,0.135,9.607,0.135c0.002,0,0.006,0,0.008,0c34.353,0,65.735-5.209,88.371-14.668
		c26.024-10.875,39.974-26.594,41.461-46.723C355.963,186.485,346.699,172.224,326.4,140.974z M309.823,251.788
		c-7.884,6.154-17.12,9.66-26.875,11.707c-4.696,0.992-9.731,1.664-12.639-3.307c-3.29-5.625,0.909-12.807,7.358-12.863
		c10.847-0.021,22.635-0.553,31.191-8.076c10.812-9.506,9.676-27.209,5.546-39.641C323.928,215.978,326.002,238.868,309.823,251.788
		z"/>
</g>
</svg>